<?xml version="1.0" encoding="UTF-8"?>
<!DOCTYPE svg PUBLIC "-//W3C//DTD SVG 1.1//EN" "http://www.w3.org/Graphics/SVG/1.1/DTD/svg11.dtd">
<svg xmlns="http://www.w3.org/2000/svg" version="1.1" width="512px" height="512px" style="shape-rendering:geometricPrecision; text-rendering:geometricPrecision; image-rendering:optimizeQuality; fill-rule:evenodd; clip-rule:evenodd" xmlns:xlink="http://www.w3.org/1999/xlink">
<g><path style="opacity:0.972" fill="#010101" d="M 400.5,13.5 C 408.234,12.6832 415.234,14.5165 421.5,19C 445,42.5 468.5,66 492,89.5C 498.927,99.6256 499.261,109.959 493,120.5C 387.5,226 282,331.5 176.5,437C 173.97,438.422 171.303,438.755 168.5,438C 165.688,436.023 163.022,433.856 160.5,431.5C 153.014,438.485 145.681,445.652 138.5,453C 135.783,455.076 132.783,455.743 129.5,455C 126.081,453.414 123.081,451.248 120.5,448.5C 117.314,451.521 113.98,454.354 110.5,457C 106.389,458.891 102.056,459.891 97.5,460C 86.1376,471.696 74.4709,483.03 62.5,494C 59.8333,494.667 57.1667,494.667 54.5,494C 39.1667,486.333 23.8333,478.667 8.5,471C 3.83412,466.994 3.33412,462.494 7,457.5C 21.3333,443.167 35.6667,428.833 50,414.5C 50.9095,409.704 52.2429,405.037 54,400.5C 56.6458,397.02 59.4791,393.686 62.5,390.5C 59.7524,387.919 57.5857,384.919 56,381.5C 55.2571,378.217 55.9238,375.217 58,372.5C 65.348,365.319 72.5146,357.986 79.5,350.5C 77.144,347.978 74.9773,345.312 73,342.5C 72.245,339.697 72.5783,337.03 74,334.5C 179.5,229 285,123.5 390.5,18C 393.815,16.1702 397.149,14.6702 400.5,13.5 Z"/></g>
<g><path style="opacity:1" fill="#367de6" d="M 402.5,29.5 C 404.989,29.2978 407.323,29.7978 409.5,31C 433,54.5 456.5,78 480,101.5C 481.373,103.695 481.706,106.029 481,108.5C 474.99,116.184 468.157,122.684 460.5,128C 434.667,102.167 408.833,76.3333 383,50.5C 382.333,49.8333 382.333,49.1667 383,48.5C 389.395,41.9365 395.895,35.6032 402.5,29.5 Z"/></g>
<g><path style="opacity:1" fill="#e6e6e7" d="M 369.5,61.5 C 370.552,61.3505 371.552,61.5172 372.5,62C 398.5,88 424.5,114 450.5,140C 442.986,147.681 435.319,155.181 427.5,162.5C 401.5,135.833 375.167,109.5 348.5,83.5C 355.521,76.1461 362.521,68.8128 369.5,61.5 Z"/></g>
<g><path style="opacity:1" fill="#367fe8" d="M 336.5,94.5 C 363.299,120.798 389.965,147.298 416.5,174C 346.32,244.347 275.986,314.514 205.5,384.5C 178.833,358.5 152.5,332.167 126.5,305.5C 196.521,235.146 266.521,164.812 336.5,94.5 Z"/></g>
<g><path style="opacity:1" fill="#e6e6e7" d="M 113.5,317.5 C 114.552,317.351 115.552,317.517 116.5,318C 142.5,344 168.5,370 194.5,396C 186.986,403.681 179.319,411.181 171.5,418.5C 145.5,391.833 119.167,365.5 92.5,339.5C 99.5215,332.146 106.521,324.813 113.5,317.5 Z"/></g>
<g><path style="opacity:1" fill="#56555b" d="M 91.5,362.5 C 110.748,380.246 129.582,398.58 148,417.5C 148.667,418.167 148.667,418.833 148,419.5C 142.667,424.833 137.333,430.167 132,435.5C 113.167,416.667 94.3333,397.833 75.5,379C 81.0363,373.631 86.3697,368.131 91.5,362.5 Z"/></g>
<g><path style="opacity:1" fill="#355d7b" d="M 74.5,402.5 C 86.4269,412.758 97.7602,423.758 108.5,435.5C 104.448,442.359 98.4476,445.192 90.5,444C 86.6554,447.18 82.8221,450.347 79,453.5C 69.1052,448.803 59.2718,443.969 49.5,439C 55,433.5 60.5,428 66,422.5C 67.2036,418.284 67.8702,413.951 68,409.5C 70.3722,407.297 72.5389,404.963 74.5,402.5 Z"/></g>
<g><path style="opacity:1" fill="#367de5" d="M 36.5,451.5 C 47.0416,455.769 57.3749,460.603 67.5,466C 63.9848,469.682 60.3181,473.182 56.5,476.5C 46.6764,471.755 37.0097,466.755 27.5,461.5C 30.5222,458.147 33.5222,454.813 36.5,451.5 Z"/></g>
</svg>
